<?xml version="1.0" encoding="UTF-8" standalone="no"?>
<svg
   xmlns:dc="http://purl.org/dc/elements/1.1/"
   xmlns:cc="http://creativecommons.org/ns#"
   xmlns:rdf="http://www.w3.org/1999/02/22-rdf-syntax-ns#"
   xmlns:svg="http://www.w3.org/2000/svg"
   xmlns="http://www.w3.org/2000/svg"
   xmlns:sodipodi="http://sodipodi.sourceforge.net/DTD/sodipodi-0.dtd"
   xmlns:inkscape="http://www.inkscape.org/namespaces/inkscape"
   width="210mm"
   height="297mm"
   viewBox="0 0 210 297"
   version="1.1"
   id="svg8"
   inkscape:version="1.0.2-2 (e86c870879, 2021-01-15)"
   sodipodi:docname="logotip.svg">
  <defs
     id="defs2" />
  <sodipodi:namedview
     id="base"
     pagecolor="#ffffff"
     bordercolor="#666666"
     borderopacity="1.0"
     inkscape:pageopacity="0.0"
     inkscape:pageshadow="2"
     inkscape:zoom="0.65968022"
     inkscape:cx="513.72052"
     inkscape:cy="509.52984"
     inkscape:document-units="mm"
     inkscape:current-layer="layer1"
     inkscape:document-rotation="0"
     showgrid="false"
     inkscape:lockguides="false"
     inkscape:window-width="1920"
     inkscape:window-height="1001"
     inkscape:window-x="-9"
     inkscape:window-y="-9"
     inkscape:window-maximized="1" />
  <metadata
     id="metadata5">
    <rdf:RDF>
      <cc:Work
         rdf:about="">
        <dc:format>image/svg+xml</dc:format>
        <dc:type
           rdf:resource="http://purl.org/dc/dcmitype/StillImage" />
        <dc:title></dc:title>
      </cc:Work>
    </rdf:RDF>
  </metadata>
  <g
     inkscape:label="Plast 1"
     inkscape:groupmode="layer"
     id="layer1">
    <path
       style="fill:#a50000;fill-opacity:1;stroke:#a50000;stroke-width:0.264583px;stroke-linecap:butt;stroke-linejoin:miter;stroke-opacity:1"
       d="m 86.670699,40.7179 -3.02348,-0.0167 -2.13817,-1.186009 1.75397,1.453279 -1.78737,1.269529 2.17156,-0.885329 c 0.61955,-0.02036 2.93918,-0.0122 3.02349,-0.01671"
       id="path352"
       sodipodi:nodetypes="ccccccc" />
    <path
       style="fill:#a50000;fill-opacity:1;stroke:#a50000;stroke-width:0.264583px;stroke-linecap:butt;stroke-linejoin:miter;stroke-opacity:1"
       d="m 102.27506,78.126597 3.02348,-0.0167 2.13817,-1.186009 -1.73726,1.536801 1.77066,1.186007 -2.17156,-0.885329 c -0.61955,-0.02036 -2.93918,-0.0122 -3.02349,-0.01671"
       id="path352-7"
       sodipodi:nodetypes="ccccccc" />
    <path
       style="fill:#0000ff;fill-opacity:1;stroke:#000000;stroke-width:0.1;stroke-miterlimit:4;stroke-dasharray:none;stroke-opacity:1"
       d="m 92.749001,55.357934 18.002289,-0.232815 c 1.48006,-0.117498 1.75506,-0.607992 2.35618,-1.13712 0.33541,-0.29524 0.76708,-0.866913 0.97626,-1.292905 0.33135,-0.674735 0.37489,-0.911458 0.37403,-2.033177 -10e-4,-1.147734 -0.0417,-1.355747 -0.42572,-2.168192 -0.53807,-1.138476 -1.40749,-1.997197 -2.41692,-2.387198 -0.85125,-0.328882 -1.03787,-0.330967 -12.457568,-0.139173 -5.680927,0.09541 -7.074767,0.03257 -8.451427,-0.381053 -3.07854,-0.924954 -4.70392,-3.290631 -3.89401,-5.667595 0.31013,-0.910182 1.4733,-2.119153 2.51907,-2.61825 1.65548,-0.790091 1.86082,-0.803902 11.939855,-0.803037 7.37852,5.29e-4 9.4334,0.03919 10.47758,0.196583 6.74787,1.017145 11.22664,4.751427 12.69653,10.586024 0.24725,0.981474 0.29522,1.531987 0.28887,3.315073 -0.007,1.877017 -0.0511,2.301369 -0.3635,3.474505 -0.66284,2.489063 -1.94858,4.752414 -3.68761,6.491441 -1.74095,1.740943 -3.93688,2.984897 -6.49144,3.67728 -1.32662,0.359563 -1.38015,0.362934 -7.34992,0.462941 -3.30746,0.05541 -7.793048,0.10641 -9.967975,0.11334 l -3.95443,0.01259 z m -2.19188,-11.321295 c 0.29419,-0.448987 0.11762,-0.989603 -0.40501,-1.240097 -0.33835,-0.162163 -0.4181,-0.153474 -0.73189,0.07972 -0.71817,0.533731 -0.41662,1.504818 0.46728,1.504818 0.32962,0 0.50205,-0.08869 0.66962,-0.344445 z m -0.13363,-4.543581 c 0.29418,-0.448988 0.11762,-0.989603 -0.40502,-1.240097 -0.33834,-0.162163 -0.4181,-0.153474 -0.73188,0.07972 -0.71817,0.533733 -0.41663,1.504817 0.46728,1.504817 0.32962,0 0.50204,-0.08869 0.66962,-0.344442 z"
       id="path1201"
       sodipodi:nodetypes="ccssccssssscsscsssssccssssssssssss" />
    <path
       style="fill:#ffff00;fill-opacity:1;stroke:#000000;stroke-width:0.1;stroke-miterlimit:4;stroke-dasharray:none;stroke-opacity:1"
       d="m 80.729315,83.084926 c -4.72495,-0.10069 -5.79183,-0.20877 -7.53674,-0.76352 -4.80746,-1.5284 -8.17028,-5.43022 -9.15308,-10.62016 -0.22338,-1.17959 -0.21965,-3.8153 0.007,-5.10268 0.49136,-2.78832 1.82296,-5.3184 3.81686,-7.25211 1.47111,-1.42671 3.04604,-2.371 5.07551,-3.04315 1.39111,-0.46073 2.29329,-0.60449 4.47944,-0.71382 1.96255,-0.0981 15.22,-0.3115 15.28551,-0.24598 l 0.21533,9.48369 -7.819334,0.048 c -8.72499,0.0535 -8.266299,0.0188 -9.73383,0.73719 -1.006069,0.492492 -1.715584,1.173943 -2.12726,2.04312 -0.286174,0.604203 -0.30502,0.70817 -0.30502,1.68341 0,0.97618 0.01867,1.078815 0.30637,1.68631 0.571709,1.207195 1.883071,2.273446 3.09541,2.51695 0.259871,0.0522 2.8112,0.13785 5.66965,0.19034 2.85844,0.0525 7.49338,0.13718 10.29985,0.1882 5.77871,0.10505 5.90635,0.11929 7.32329,0.81701 1.096009,0.53969 2.076349,1.45694 2.511329,2.3497 0.24287,0.49847 0.27624,0.66972 0.27624,1.41741 0,0.7477 -0.0334,0.91895 -0.27624,1.41741 -0.33568,0.68897 -1.39316,1.77733 -2.13533,2.1977 -0.857499,0.4857 -2.103919,0.85418 -3.260229,0.96383 -1.13771,0.10788 -10.97297,0.1086 -16.01458,0.001 z m 18.07819,-1.3355 c 0.44905,-0.23916 0.56598,-0.70037 0.30535,-1.20437 -0.1547,-0.29917 -0.60839,-0.52707 -0.87855,-0.44133 -0.32282,0.10246 -0.71655,0.59806 -0.71655,0.90195 0,0.60342 0.74577,1.03348 1.28975,0.74375 z m 0.12136,-4.93605 c 0.40562,-0.40563 0.41886,-0.72961 0.0451,-1.1034 -0.64441,-0.64441 -1.74373,-0.0287 -1.4286,0.80014 0.26211,0.68941 0.8652,0.8216 1.38354,0.30326 z"
       id="path1243"
       sodipodi:nodetypes="csscssccccsssssssssssssccsssssccscc" />
    <path
       style="fill:#ff0000;fill-opacity:1;stroke:#000000;stroke-width:0.00835165;stroke-miterlimit:4;stroke-dasharray:none;stroke-opacity:1"
       d="m 338.9233,150.35591 c -1.04715,-0.10242 -1.83789,-0.5274 -2.31864,-1.24612 -0.31369,-0.46897 -0.4507,-0.9183 -0.45107,-1.47928 -5.2e-4,-0.78339 0.30631,-1.49443 0.92214,-2.13695 0.31612,-0.32982 0.91996,-0.77899 1.31269,-0.97645 0.46545,-0.23402 0.77545,-0.20291 1.56442,0.15699 1.12528,0.51333 1.80967,1.25487 2.06575,2.23826 0.0649,0.24927 0.0827,0.80755 0.0346,1.08404 -0.16087,0.92419 -0.86237,1.88366 -1.59032,2.17514 -0.38039,0.15232 -1.04885,0.23237 -1.53958,0.18437 z"
       id="path1257"
       transform="scale(0.26458333)" />
    <path
       style="fill:#ff0000;fill-opacity:1;stroke:#000000;stroke-width:0.0668132;stroke-miterlimit:4;stroke-dasharray:none;stroke-opacity:1"
       d=""
       id="path1259"
       transform="scale(0.26458333)" />
    <path
       style="fill:#ff0000;fill-opacity:1;stroke:#000000;stroke-width:0.0668132;stroke-miterlimit:4;stroke-dasharray:none;stroke-opacity:1"
       d="m 370.88646,291.16614 c -1.07047,-0.20912 -2.30973,-2.2828 -2.08383,-3.48694 0.22661,-1.20795 1.51882,-2.22254 2.8307,-2.22254 0.9309,0 1.68889,0.3758 2.44248,1.21093 0.86185,0.95511 0.90035,1.76701 0.13394,2.82501 -0.88045,1.21541 -2.21868,1.88932 -3.32329,1.67354 z"
       id="path1263"
       transform="scale(0.26458333)" />
    <path
       style="fill:#ff0000;fill-opacity:1;stroke:#000000;stroke-width:0.0668132;stroke-miterlimit:4;stroke-dasharray:none;stroke-opacity:1"
       d="m 370.45726,308.60513 c -0.83193,-0.43929 -1.55217,-1.48264 -1.55217,-2.24851 0,-0.79978 0.54074,-1.79341 1.39695,-2.56695 0.85862,-0.7757 1.38431,-0.93344 2.20654,-0.66208 1.32703,0.43796 2.25298,1.70249 2.27419,3.10577 0.0322,2.13021 -2.33002,3.42547 -4.32551,2.37177 z"
       id="path1265"
       transform="scale(0.26458333)" />
    <text
       xml:space="preserve"
       style="font-style:normal;font-weight:normal;font-size:7.05556px;line-height:1.25;font-family:sans-serif;fill:#000000;fill-opacity:1;stroke:none;stroke-width:0.264583"
       x="78.197372"
       y="64.286743"
       id="text1293"
       transform="rotate(-1.0679268)"><tspan
         sodipodi:role="line"
         id="tspan1291"
         x="78.197372"
         y="64.286743"
         style="font-size:7.05556px;fill:#ffffff;stroke-width:0.264583"
         dx="0 0 0.40000001"><tspan
   style="fill:#000000"
   id="tspan1357">PYT</tspan>HON</tspan></text>
    <text
       xml:space="preserve"
       style="font-style:normal;font-weight:normal;font-size:4.58611px;line-height:1.25;font-family:sans-serif;fill:#ffffff;fill-opacity:1;stroke:none;stroke-width:0.264583"
       x="94.742546"
       y="43.288353"
       id="text1299"
       transform="rotate(-0.22808864)"
       inkscape:transform-center-x="-0.47778259"
       inkscape:transform-center-y="4.579674"><tspan
         sodipodi:role="line"
         id="tspan1297"
         x="94.742546"
         y="43.288353"
         style="font-size:4.58611px;fill:#ffffff;stroke-width:0.264583">#</tspan></text>
    <text
       xml:space="preserve"
       style="font-size:4.23333px;line-height:1.25;font-family:sans-serif;stroke-width:0.264583;fill:#000000;"
       x="71.904327"
       y="78.645134"
       id="text1303"><tspan
         sodipodi:role="line"
         id="tspan1301"
         x="71.904327"
         y="78.645134"
         style="font-size:4.23333px;fill:#000000;stroke-width:0.264583;">&gt;</tspan><tspan
         sodipodi:role="line"
         x="71.904327"
         y="83.936798"
         style="font-size:4.23333px;stroke-width:0.264583;fill:#000000;"
         id="tspan1305" /></text>
    <text
       xml:space="preserve"
       style="font-size:4.58611px;line-height:1.25;font-family:sans-serif;fill:#ffffff;stroke-width:0.264583"
       x="111.37078"
       y="42.949398"
       id="text1309"><tspan
         sodipodi:role="line"
         id="tspan1307"
         x="111.37078"
         y="42.949398"
         style="font-size:4.58611px;fill:#ffffff;stroke-width:0.264583">&lt;</tspan><tspan
         sodipodi:role="line"
         x="111.37078"
         y="48.682037"
         style="font-size:4.58611px;fill:#ffffff;stroke-width:0.264583"
         id="tspan1311" /></text>
    <text
       xml:space="preserve"
       style="font-size:4.23333333px;line-height:1.25;font-family:sans-serif;stroke-width:0.264583;fill:#000000;"
       x="66.873444"
       y="71.172913"
       id="text1315"><tspan
         sodipodi:role="line"
         id="tspan1313"
         x="66.873444"
         y="71.172913"
         style="fill:#000000;stroke-width:0.264583;font-size:4.23333333px;">%</tspan></text>
    <text
       xml:space="preserve"
       style="font-size:4.58611px;line-height:1.25;font-family:sans-serif;fill:#ffffff;stroke-width:0.264583"
       x="116.74933"
       y="47.71854"
       id="text1319"><tspan
         sodipodi:role="line"
         x="116.74933"
         y="47.71854"
         style="font-size:4.58611px;fill:#ffffff;stroke-width:0.264583"
         id="tspan1341">+</tspan></text>
    <text
       xml:space="preserve"
       style="font-size:4.23333px;line-height:1.25;font-family:sans-serif;stroke-width:0.264583;fill:#000000;"
       x="89.762154"
       y="78.031769"
       id="text1325"><tspan
         sodipodi:role="line"
         id="tspan1323"
         x="89.762154"
         y="78.031769"
         style="font-size:4.23333px;fill:#000000;stroke-width:0.264583;">//</tspan></text>
    <text
       xml:space="preserve"
       style="font-size:4.23333px;line-height:1.25;font-family:sans-serif;stroke-width:0.264583;fill:#000000;"
       x="78.954147"
       y="81.359375"
       id="text1329"><tspan
         sodipodi:role="line"
         id="tspan1327"
         x="78.954147"
         y="81.359375"
         style="font-size:4.23333px;fill:#000000;stroke-width:0.264583;"
         rotate="0 0 0">==</tspan></text>
    <text
       xml:space="preserve"
       style="font-size:4.58611px;line-height:1.25;font-family:sans-serif;fill:#ffffff;stroke-width:0.264583"
       x="116.73799"
       y="54.868938"
       id="text1333"><tspan
         sodipodi:role="line"
         id="tspan1331"
         x="116.73799"
         y="54.868938"
         style="font-size:4.58611px;fill:#ffffff;stroke-width:0.264583">&amp;</tspan></text>
    <text
       xml:space="preserve"
       style="font-size:4.23333333px;line-height:1.25;font-family:sans-serif;stroke-width:0.264583;fill:#000000;"
       x="70.511459"
       y="62.772392"
       id="text1337"><tspan
         sodipodi:role="line"
         id="tspan1335"
         x="70.511459"
         y="62.772392"
         style="fill:#000000;stroke-width:0.264583;font-size:4.23333333px;">()</tspan></text>
    <text
       xml:space="preserve"
       style="font-size:4.58611px;line-height:1.25;font-family:sans-serif;fill:#ffffff;stroke-width:0.264583"
       x="111.07021"
       y="55.564445"
       id="text1349"><tspan
         sodipodi:role="line"
         id="tspan1347"
         x="111.07021"
         y="55.564445"
         style="font-size:4.58611px;fill:#ffffff;stroke-width:0.264583" /><tspan
         sodipodi:role="line"
         x="111.07021"
         y="61.297085"
         style="font-size:4.58611px;fill:#ffffff;stroke-width:0.264583"
         id="tspan1351">!=</tspan></text>
    <text
       xml:space="preserve"
       style="font-size:3.88056px;line-height:1.25;font-family:sans-serif;fill:#ffffff;stroke-width:0.264583"
       x="100.91096"
       y="40.92564"
       id="text1361"><tspan
         sodipodi:role="line"
         id="tspan1359"
         x="100.91096"
         y="40.92564"
         style="fill:#ffffff;stroke-width:0.264583" /></text>
    <text
       xml:space="preserve"
       style="font-size:4.58611px;line-height:1.25;font-family:sans-serif;fill:#ffffff;stroke-width:0.264583"
       x="102.12702"
       y="42.37558"
       id="text1365"><tspan
         sodipodi:role="line"
         id="tspan1363"
         x="102.12702"
         y="42.37558"
         style="font-size:4.58611px;fill:#ffffff;stroke-width:0.264583">{}</tspan></text>
    <path
       style="fill:#ff0000;fill-opacity:1;stroke:#000000;stroke-width:0.0167033;stroke-miterlimit:4;stroke-dasharray:none;stroke-opacity:1"
       d="m 339.0863,167.47848 c -1.00763,-0.20945 -1.70895,-0.69401 -2.10908,-1.45722 -0.24167,-0.46097 -0.31267,-0.79151 -0.28837,-1.34259 0.0361,-0.81861 0.30984,-1.39341 0.97877,-2.05521 0.63946,-0.63264 1.37387,-1.07708 1.78654,-1.08113 0.30343,-0.003 1.24467,0.38853 1.73137,0.72017 0.57837,0.3941 1.06614,1.02497 1.26569,1.63701 0.23609,0.72412 0.132,1.58679 -0.2725,2.25852 -0.44413,0.73756 -0.92522,1.12855 -1.57792,1.28244 -0.25741,0.0607 -1.2817,0.0864 -1.5145,0.038 z"
       id="path1368"
       transform="scale(0.26458333)" />
    <text
       xml:space="preserve"
       style="font-size:4.23333px;line-height:1.25;font-family:sans-serif;stroke-width:0.264583"
       x="31.378939"
       y="103.43429"
       id="text48"><tspan
         sodipodi:role="line"
         id="tspan46"
         x="31.378939"
         y="103.43429"
         style="font-size:4.23333px;stroke-width:0.264583">Python-logo © 20211 by Miha Tratnik is licensed under CC BY-NC-ND 4.0 </tspan></text>
  </g>
</svg>
